<svg width="300" height="450" viewBox="0 0 300 450" fill="none" xmlns="http://www.w3.org/2000/svg">
<path d="M56.7741 160.245C67.0489 163.169 77.1264 158.009 86.6695 153.121L86.6704 153.121C89.4408 151.702 92.1663 150.307 94.8385 149.138C101.671 146.152 108.457 143.062 115.244 139.971L115.245 139.971L115.249 139.969L115.274 139.957L115.28 139.955L115.281 139.954C119.646 137.967 124.01 135.979 128.387 134.02C130.283 133.171 132.279 132.373 134.299 131.564L134.3 131.564C138.962 129.698 143.752 127.781 147.735 125.085C149.768 123.706 151.451 121.777 153.13 119.853L153.13 119.853L153.131 119.851C154.308 118.503 155.482 117.157 156.774 116.004C167.58 106.354 181.258 95.2977 195.483 91.405C200.148 90.1284 203.251 93.3899 205.871 96.8703C211.212 103.97 215.658 112.121 218.967 120.391C221.49 126.698 223.522 133.302 224.767 139.991C225.014 141.322 225.14 142.749 225.266 144.193C225.497 146.821 225.733 149.504 226.715 151.752C231.788 163.321 239.503 174.248 247.102 185.012C251.284 190.935 255.431 196.809 259.083 202.713C260.044 204.269 260.999 205.855 261.959 207.451C265.004 212.509 268.107 217.663 271.638 222.253C273.277 224.385 276.354 226.979 279.27 226.558C281.303 226.264 282.216 223.706 282.895 221.805C282.996 221.521 283.093 221.252 283.186 221.007C285.573 214.763 287.948 208.474 289.857 202.06C298.109 174.316 300.044 147.153 299.999 118.431C299.973 102.119 296.973 84.0842 291.341 68.7762C286.496 55.6086 280.096 43.0011 270.315 32.842C260.399 22.5523 249.09 13.573 236.128 7.56297C179.206 -18.8304 118.516 28.6066 91.1482 76.6164C76.3676 102.55 62.4515 130.611 56.7741 160.245Z" fill="white"/>
<path d="M0 266.741C8.95395 269.289 16.8326 265.393 24.7709 261.468C26.6135 260.557 28.4593 259.644 30.3225 258.81C34.3489 257.007 38.3772 255.207 42.406 253.406L42.4117 253.404L42.4136 253.403L42.4154 253.402C59.7051 245.675 77.0024 237.945 94.1933 230.003C98.0123 228.238 101.847 226.506 105.682 224.773L105.683 224.773L105.689 224.77L105.727 224.753C108.336 223.574 110.944 222.396 113.548 221.207C114.073 220.967 114.639 220.738 115.221 220.502C117.529 219.567 120.085 218.532 121.271 216.365C123.087 213.047 122.667 207.812 122.276 202.946C122.057 200.224 121.848 197.617 122.045 195.526C122.857 186.885 124.923 178.777 126.989 170.668L126.99 170.666L126.99 170.664C128.469 164.861 129.948 159.058 130.967 153.058C119.528 150.41 105.104 158.09 92.8813 164.599C89.201 166.559 85.7202 168.412 82.5804 169.846C68.6386 176.21 54.6644 182.539 40.6451 188.716C39.0974 189.397 37.3122 190.066 35.44 190.768L35.4381 190.769C30.2097 192.728 24.3026 194.942 20.9871 198.394C17.7354 201.785 16.3542 207.959 15.1513 213.336L15.1499 213.342L15.1485 213.349L15.147 213.355C14.7404 215.172 14.3543 216.898 13.9226 218.393C12.4061 223.641 10.7442 228.896 9.07776 234.166C5.66846 244.947 2.24042 255.788 0 266.741Z" fill="white"/>
<path d="M223.225 181.153C220.406 194.955 214.103 208.283 207.09 220.354C206.248 221.801 204.993 223.487 203.649 225.293C200.453 229.588 196.75 234.564 196.877 238.647C197.06 244.504 202.943 252.234 207.671 258.447C209.279 260.561 210.754 262.499 211.825 264.128C218.528 274.308 225.043 284.614 231.559 294.92L231.561 294.924L231.564 294.929L231.569 294.936L231.577 294.949L231.583 294.958L231.587 294.965C238.058 305.2 244.527 315.433 251.18 325.543C252.462 327.489 253.692 329.646 254.946 331.844L254.947 331.846C257.635 336.559 260.432 341.463 264.083 344.886C265.716 346.422 269.722 348.499 271.928 347.06C273.467 346.054 274.055 343.254 274.52 341.037C274.66 340.372 274.788 339.759 274.928 339.263C276.78 332.717 278.683 326.171 280.657 319.663C283.296 310.984 285.838 302.262 288.296 293.529C288.584 292.502 288.934 291.441 289.291 290.36L289.292 290.358C290.358 287.128 291.485 283.714 291.199 280.462C290.75 275.353 286.656 269.774 283.153 265L283.153 264.999C282.076 263.531 281.054 262.14 280.212 260.861C270.974 246.824 261.864 232.638 252.935 218.393C250.374 214.303 247.75 210.251 245.126 206.199L245.123 206.194L245.119 206.189L245.115 206.182C242.541 202.207 239.967 198.232 237.451 194.22C237.102 193.663 236.761 193.106 236.421 192.554L236.421 192.553L236.42 192.552L236.419 192.551C233.109 187.162 230.053 182.189 223.225 181.153Z" fill="white"/>
<path d="M121.277 233.262C118.066 233.6 114.575 235.454 111.315 237.185L111.314 237.186C109.846 237.965 108.425 238.72 107.097 239.301C101.243 241.86 95.428 244.515 89.6132 247.169L89.6038 247.173C83.8347 249.807 78.0656 252.44 72.2579 254.981C71.449 255.335 70.4061 255.722 69.2452 256.152L69.2441 256.153C64.5902 257.878 58.0403 260.307 57.0643 264.14C55.3091 271.019 61.0749 281.821 65.0145 289.202C65.7376 290.557 66.3995 291.797 66.9418 292.875C82.6773 324.211 120.226 348.53 155.483 344.303C175.032 341.96 193.412 335.926 209.677 324.419C210.331 323.955 211.109 323.438 211.958 322.874L211.964 322.87L211.969 322.867C216.584 319.8 223.296 315.34 223.748 310.516C224.044 307.352 221.722 304.18 219.73 301.459C219.205 300.742 218.702 300.055 218.277 299.409C215.702 295.488 213.195 291.522 210.687 287.554L210.683 287.547L210.674 287.533C208.073 283.417 205.471 279.301 202.793 275.235C199.38 270.046 196.038 264.798 192.703 259.555C192.339 258.982 191.976 258.315 191.597 257.618L191.596 257.617L191.596 257.616C190.509 255.619 189.288 253.375 187.529 252.398C184.515 250.723 181.786 254.055 179.085 257.352C177.045 259.842 175.021 262.312 172.903 262.591C170.769 262.872 168.206 261.912 165.879 261.04L165.878 261.039C164.941 260.688 164.042 260.352 163.225 260.116C155.464 257.879 147.729 255.551 140 253.204C139.227 252.969 138.277 252.75 137.248 252.512C133.81 251.717 129.49 250.718 127.935 248.266C127.207 247.112 126.849 244.896 126.464 242.513C125.735 237.997 124.909 232.88 121.277 233.262Z" fill="white"/>
<path d="M93.675 356.41L93.6401 356.501C93.4334 357.04 93.227 357.579 93.0205 358.119L93.0184 358.124L93.016 358.131L93.0144 358.135L93.0134 358.138C91.9232 360.987 90.833 363.836 89.7019 366.653L89.4748 367.218C85.9967 375.881 82.525 384.528 78.4526 392.708C78.1669 393.282 77.8873 393.86 77.6079 394.438C76.875 395.954 76.143 397.468 75.305 398.897L75.2377 399.012C67.5121 412.203 58.4135 383.98 62.8487 374.826L62.8519 374.819L62.8532 374.817C63.1597 374.184 63.4662 373.551 63.7718 372.919C66.5005 367.266 69.0376 361.443 71.5736 355.623C72.8029 352.802 74.032 349.981 75.2826 347.18C76.1909 345.147 77.081 343.106 77.8909 340.993L77.9003 340.969C78.3768 339.728 78.9824 338.151 80.2908 337.835C81.5387 337.535 83.0699 338.57 84.3705 339.562C87.426 341.892 90.8657 345.383 93.1343 348.737C95.358 352.024 94.5956 354.011 93.675 356.41Z" fill="white"/>
<path d="M99.7896 413.856L100.061 412.855C104.209 397.514 108.351 382.202 113.058 367.608C113.388 366.584 113.713 365.554 114.037 364.524C120.806 343.025 137.233 363.647 132.332 379.949C132.29 380.087 132.248 380.226 132.207 380.366L132.177 380.465C130.603 385.752 128.962 390.956 127.322 396.154L127.317 396.171C126.962 397.299 126.606 398.426 126.251 399.554C123.084 409.626 120.096 419.964 117.108 430.298C105.609 470.079 92.2228 441.828 99.7896 413.856Z" fill="white"/>
<path d="M153.852 367.175L153.836 367.272C153.74 367.851 153.644 368.43 153.548 369.01L153.547 369.015L153.546 369.022L153.545 369.027L153.544 369.03C153.036 372.088 152.528 375.147 152.073 378.201L151.982 378.814C150.581 388.207 149.182 397.583 148.552 406.902C148.508 407.556 148.456 408.21 148.404 408.864C148.268 410.578 148.132 412.291 148.133 413.991L148.134 414.128C148.135 429.798 170.658 410.868 171.469 400.524L171.47 400.513C171.526 399.798 171.582 399.082 171.639 398.366C172.15 391.975 172.916 385.548 173.683 379.124C174.054 376.009 174.425 372.896 174.767 369.787C175.016 367.53 175.283 365.277 175.659 363.008L175.663 362.981C175.883 361.648 176.162 359.954 175.175 358.937C174.232 357.968 172.354 357.978 170.7 358.083C166.816 358.331 161.996 359.351 158.276 360.923C154.63 362.464 154.278 364.598 153.852 367.175Z" fill="white"/>
</svg>
