<svg width="900" height="900" viewBox="0 0 900 900" fill="none" xmlns="http://www.w3.org/2000/svg">
<rect width="900" height="900" fill="#14A0B4"/>
<rect width="900" height="900" fill="url(#paint0_linear_2016_5)"/>
<path d="M356.774 385.245C367.049 388.169 377.126 383.009 386.67 378.121L386.67 378.121C389.441 376.702 392.166 375.306 394.838 374.138C401.671 371.152 408.457 368.062 415.244 364.971L415.245 364.971L415.249 364.969L415.274 364.957L415.28 364.955L415.281 364.954C419.646 362.967 424.01 360.979 428.387 359.02C430.283 358.171 432.279 357.373 434.299 356.564L434.3 356.564C438.962 354.698 443.752 352.781 447.735 350.085C449.768 348.706 451.451 346.777 453.13 344.853L453.13 344.853L453.131 344.851C454.308 343.503 455.482 342.157 456.774 341.004C467.58 331.354 481.258 320.298 495.483 316.405C500.148 315.128 503.251 318.39 505.871 321.87C511.212 328.97 515.658 337.121 518.967 345.391C521.49 351.698 523.522 358.302 524.767 364.991C525.014 366.322 525.14 367.749 525.266 369.193C525.497 371.821 525.733 374.504 526.716 376.752C531.788 388.321 539.503 399.248 547.102 410.012C551.284 415.935 555.431 421.809 559.083 427.713C560.044 429.269 560.999 430.855 561.959 432.451C565.004 437.509 568.107 442.663 571.638 447.253C573.277 449.385 576.354 451.979 579.27 451.558C581.303 451.264 582.216 448.706 582.895 446.805C582.996 446.521 583.093 446.252 583.186 446.007C585.573 439.763 587.948 433.474 589.857 427.06C598.109 399.316 600.044 372.153 599.999 343.431C599.973 327.119 596.973 309.084 591.341 293.776C586.496 280.609 580.096 268.001 570.315 257.842C560.399 247.552 549.09 238.573 536.128 232.563C479.206 206.17 418.516 253.607 391.148 301.616C376.368 327.55 362.451 355.611 356.774 385.245Z" fill="white"/>
<path d="M300 491.741C308.954 494.289 316.833 490.393 324.771 486.468C326.613 485.557 328.459 484.644 330.323 483.81C334.349 482.007 338.377 480.207 342.406 478.406L342.412 478.404L342.414 478.403L342.415 478.402C359.705 470.675 377.002 462.945 394.193 455.003C398.012 453.238 401.847 451.506 405.682 449.773L405.683 449.773L405.689 449.77L405.727 449.753C408.336 448.574 410.944 447.396 413.548 446.207C414.073 445.967 414.639 445.738 415.221 445.502C417.529 444.567 420.085 443.532 421.271 441.365C423.087 438.047 422.667 432.812 422.276 427.946C422.057 425.224 421.848 422.617 422.045 420.526C422.857 411.885 424.923 403.777 426.989 395.668L426.99 395.666L426.99 395.664C428.469 389.861 429.948 384.058 430.967 378.058C419.528 375.41 405.104 383.09 392.881 389.599C389.201 391.559 385.72 393.412 382.58 394.846C368.639 401.21 354.664 407.539 340.645 413.716C339.097 414.397 337.312 415.066 335.44 415.768L335.438 415.769C330.21 417.728 324.303 419.942 320.987 423.394C317.735 426.785 316.354 432.959 315.151 438.336L315.15 438.342L315.148 438.349L315.147 438.355C314.74 440.172 314.354 441.898 313.923 443.393C312.406 448.641 310.744 453.896 309.078 459.166C305.668 469.947 302.24 480.788 300 491.741Z" fill="white"/>
<path d="M523.225 406.153C520.406 419.955 514.103 433.283 507.09 445.354C506.248 446.801 504.993 448.487 503.649 450.293C500.453 454.588 496.75 459.564 496.877 463.647C497.06 469.504 502.943 477.234 507.671 483.447C509.279 485.561 510.754 487.499 511.825 489.128C518.528 499.308 525.043 509.614 531.559 519.92L531.561 519.924L531.564 519.929L531.569 519.936L531.577 519.949L531.583 519.958L531.587 519.965C538.058 530.2 544.528 540.433 551.18 550.543C552.462 552.489 553.692 554.646 554.946 556.844L554.947 556.846C557.635 561.559 560.432 566.463 564.083 569.886C565.716 571.422 569.722 573.499 571.928 572.06C573.467 571.054 574.055 568.254 574.52 566.037C574.66 565.372 574.788 564.759 574.928 564.263C576.78 557.717 578.683 551.171 580.657 544.663C583.296 535.984 585.838 527.262 588.296 518.529C588.584 517.502 588.934 516.441 589.291 515.36L589.292 515.358C590.358 512.128 591.485 508.714 591.199 505.462C590.75 500.353 586.656 494.774 583.153 490L583.153 489.999C582.076 488.531 581.054 487.14 580.212 485.861C570.974 471.824 561.864 457.638 552.935 443.393C550.374 439.303 547.75 435.251 545.126 431.199L545.123 431.194L545.119 431.189L545.115 431.182C542.541 427.207 539.967 423.232 537.451 419.22C537.102 418.663 536.761 418.106 536.421 417.554L536.421 417.553L536.42 417.552L536.419 417.551C533.109 412.162 530.053 407.189 523.225 406.153Z" fill="white"/>
<path d="M421.277 458.262C418.066 458.6 414.575 460.454 411.315 462.185L411.314 462.186C409.846 462.965 408.425 463.72 407.097 464.301C401.243 466.86 395.428 469.515 389.613 472.169L389.604 472.173C383.835 474.807 378.066 477.44 372.258 479.981C371.449 480.335 370.406 480.722 369.245 481.152L369.244 481.153C364.59 482.878 358.04 485.307 357.064 489.14C355.309 496.019 361.075 506.821 365.015 514.202C365.738 515.557 366.399 516.797 366.942 517.875C382.677 549.211 420.226 573.53 455.483 569.303C475.032 566.96 493.412 560.926 509.677 549.419C510.331 548.955 511.109 548.438 511.958 547.874L511.964 547.87L511.969 547.867C516.584 544.8 523.296 540.34 523.748 535.516C524.044 532.352 521.722 529.18 519.73 526.459C519.205 525.742 518.702 525.055 518.277 524.409C515.702 520.488 513.195 516.522 510.687 512.554L510.683 512.547L510.674 512.533C508.073 508.417 505.471 504.301 502.793 500.235C499.38 495.046 496.038 489.798 492.703 484.555C492.339 483.982 491.976 483.315 491.597 482.618L491.596 482.617L491.596 482.616C490.509 480.619 489.288 478.375 487.529 477.398C484.515 475.723 481.786 479.055 479.085 482.352C477.045 484.842 475.021 487.312 472.903 487.591C470.769 487.872 468.206 486.912 465.879 486.04L465.878 486.039C464.941 485.688 464.042 485.352 463.225 485.116C455.464 482.879 447.729 480.551 440 478.204C439.227 477.969 438.277 477.75 437.248 477.512C433.81 476.717 429.489 475.718 427.935 473.266C427.207 472.112 426.849 469.896 426.464 467.513C425.735 462.997 424.909 457.88 421.277 458.262Z" fill="white"/>
<path d="M393.675 581.41L393.64 581.501C393.433 582.04 393.227 582.579 393.021 583.119L393.018 583.124L393.016 583.131L393.014 583.135L393.013 583.138C391.923 585.987 390.833 588.836 389.702 591.653L389.475 592.218C385.997 600.881 382.525 609.528 378.453 617.708C378.167 618.282 377.887 618.86 377.608 619.438C376.875 620.954 376.143 622.468 375.305 623.897L375.238 624.012C367.512 637.203 358.413 608.98 362.849 599.826L362.852 599.819L362.853 599.817C363.16 599.184 363.466 598.551 363.772 597.919C366.501 592.266 369.038 586.443 371.574 580.623C372.803 577.802 374.032 574.981 375.283 572.18C376.191 570.147 377.081 568.106 377.891 565.993L377.9 565.969C378.377 564.728 378.982 563.151 380.291 562.835C381.539 562.535 383.07 563.57 384.37 564.562C387.426 566.892 390.866 570.383 393.134 573.737C395.358 577.024 394.596 579.011 393.675 581.41Z" fill="white"/>
<path d="M399.79 638.856L400.061 637.855C404.209 622.514 408.351 607.202 413.058 592.608C413.388 591.584 413.713 590.554 414.037 589.524C420.806 568.025 437.233 588.647 432.332 604.949C432.29 605.087 432.248 605.226 432.207 605.366L432.177 605.465C430.603 610.752 428.962 615.956 427.322 621.154L427.317 621.171C426.962 622.299 426.606 623.426 426.251 624.554C423.084 634.626 420.096 644.964 417.108 655.298C405.609 695.079 392.223 666.828 399.79 638.856Z" fill="white"/>
<path d="M453.852 592.175L453.836 592.272C453.74 592.851 453.644 593.43 453.548 594.01L453.547 594.015L453.546 594.022L453.545 594.027L453.544 594.03C453.036 597.088 452.528 600.147 452.073 603.201L451.982 603.814C450.581 613.207 449.182 622.583 448.552 631.902C448.508 632.556 448.456 633.21 448.404 633.864C448.268 635.578 448.132 637.291 448.133 638.991L448.134 639.128C448.135 654.798 470.658 635.868 471.469 625.524L471.47 625.513C471.526 624.798 471.582 624.082 471.639 623.366C472.15 616.975 472.916 610.548 473.683 604.124C474.054 601.009 474.425 597.896 474.767 594.787C475.016 592.53 475.283 590.277 475.659 588.008L475.663 587.981C475.883 586.648 476.162 584.954 475.175 583.937C474.232 582.968 472.354 582.978 470.7 583.083C466.816 583.331 461.996 584.351 458.276 585.923C454.63 587.464 454.278 589.598 453.852 592.175Z" fill="white"/>
<path d="M466.334 732.596C480.982 731.45 489.237 730.304 494.867 728.586C507.226 724.814 511.425 723 524.976 715.601C541.915 706.339 556.612 695.789 576.557 678.603C590.49 666.668 606.093 646.188 619.31 622.605C624.797 612.723 631.143 597.638 634.484 586.323C636.965 578.112 641.116 558.539 643.12 545.745C644.074 539.73 645.267 532.569 645.792 529.896C646.985 523.738 647.939 513.999 648.607 501.825C648.894 496.574 649.323 488.554 649.562 484.066C650.23 472.323 650.182 468.074 649.085 457.38C647.224 438.81 646.89 436.518 642.643 414.701C641.498 408.782 640.114 401.287 639.541 397.993C636.44 379.47 632.814 364.91 626.42 345.241C624.463 339.226 616.638 320.608 614.586 317.123C613.823 315.834 611.962 311.633 610.435 307.814C605.616 295.64 598.363 280.793 590.728 267.426C587.675 262.032 580.66 251.768 574.362 243.509C571.165 239.26 567.204 233.818 565.63 231.431C552.413 211.763 523.211 186.604 502.836 177.343C490.478 171.71 479.455 168.941 463.471 167.509C445.529 165.885 425.441 168.225 412.653 173.428C399.77 178.679 380.445 193.765 359.641 214.77C341.414 233.102 335.545 240.311 322.614 260.027C304.1 288.241 301.38 293.158 289.595 319.701C277.666 346.482 275.184 352.879 269.697 371.259C255.382 419.38 251.183 442.868 250.181 480.104C249.227 517.34 251.995 545.22 259.486 573.673C262.254 584.175 262.969 586.371 268.313 599.69C278.572 625.422 283.582 633.919 304.196 660.892C310.112 668.673 313.357 672.445 317.079 675.882C337.549 694.787 350.718 705.432 361.311 711.543C376.771 720.47 400.247 727.201 430.785 731.498C440.949 732.93 456.361 733.408 466.334 732.596Z" fill="white"/>
<defs>
<linearGradient id="paint0_linear_2016_5" x1="450" y1="0" x2="450" y2="900" gradientUnits="userSpaceOnUse">
<stop stop-color="#4DB8C7"/>
<stop offset="1" stop-color="#14A0B4"/>
</linearGradient>
</defs>
</svg>
