<svg width="465" height="689" viewBox="0 0 465 689" fill="none" xmlns="http://www.w3.org/2000/svg">
<mask id="path-1-inside-1_14_19" fill="white">
<path d="M88 245.267C103.926 249.743 119.546 241.844 134.338 234.363L134.339 234.363C138.634 232.191 142.858 230.055 147 228.267C157.59 223.696 168.109 218.966 178.628 214.236L178.63 214.235L178.636 214.232L178.675 214.215L178.684 214.211L178.686 214.21C185.452 211.168 192.217 208.126 199 205.127C201.938 203.829 205.032 202.606 208.164 201.368L208.165 201.368C215.391 198.512 222.816 195.578 228.99 191.452C232.141 189.342 234.749 186.389 237.352 183.444L237.353 183.443L237.354 183.441C239.177 181.377 240.998 179.317 243 177.552C259.75 162.782 280.95 145.86 303 139.902C310.23 137.948 315.04 142.94 319.1 148.267C327.38 159.134 334.27 171.609 339.4 184.267C343.31 193.92 346.46 204.028 348.39 214.267C348.773 216.303 348.967 218.488 349.164 220.698C349.522 224.72 349.887 228.826 351.41 232.267C359.273 249.975 371.23 266.699 383.009 283.174C389.491 292.24 395.918 301.23 401.58 310.267C403.069 312.648 404.549 315.076 406.038 317.519C410.758 325.261 415.567 333.149 421.04 340.174C423.58 343.437 428.35 347.408 432.87 346.764C436.02 346.314 437.436 342.399 438.489 339.488C438.646 339.054 438.795 338.642 438.94 338.267C442.64 328.711 446.32 319.084 449.28 309.267C462.07 266.804 465.07 225.228 465 181.267C464.96 156.3 460.31 128.697 451.58 105.267C444.07 85.113 434.15 65.8163 418.99 50.267C403.62 34.5179 386.09 20.7745 366 11.5757C277.77 -28.8212 183.7 43.7845 141.28 117.267C118.37 156.96 96.8 199.909 88 245.267Z"/>
<path d="M0 408.267C13.8787 412.167 26.0906 406.204 38.395 400.195C41.251 398.801 44.1121 397.404 47 396.127C53.241 393.368 59.4849 390.612 65.7295 387.856L65.7383 387.852L65.7412 387.851L65.7441 387.85C92.5432 376.023 119.354 364.191 146 352.036C151.92 349.335 157.864 346.683 163.807 344.032L163.809 344.031L163.819 344.026L163.877 344.001C167.921 342.197 171.964 340.392 176 338.573C176.813 338.206 177.69 337.856 178.592 337.495C182.171 336.064 186.133 334.479 187.97 331.162C190.785 326.084 190.134 318.071 189.528 310.623C189.189 306.457 188.865 302.467 189.17 299.267C190.429 286.041 193.631 273.631 196.834 261.22L196.835 261.217L196.835 261.213C199.127 252.332 201.419 243.45 203 234.267C185.269 230.213 162.912 241.969 143.966 251.931C138.262 254.93 132.867 257.767 128 259.961C106.39 269.702 84.73 279.389 63 288.843C60.6011 289.886 57.834 290.91 54.9321 291.984L54.9292 291.985C46.8252 294.984 37.6692 298.372 32.53 303.657C27.49 308.846 25.3491 318.296 23.4846 326.526L23.4824 326.535L23.4802 326.546L23.4779 326.556C22.8477 329.337 22.2492 331.978 21.5801 334.267C19.2295 342.299 16.6536 350.342 14.0706 358.408C8.78613 374.91 3.47266 391.502 0 408.267Z"/>
<path d="M346 277.267C341.63 298.392 331.86 318.792 320.99 337.267C319.685 339.483 317.74 342.063 315.657 344.827C310.703 351.4 304.963 359.017 305.16 365.267C305.444 374.23 314.562 386.063 321.89 395.572C324.384 398.808 326.67 401.774 328.33 404.267C338.719 419.848 348.818 435.623 358.917 451.397L358.92 451.402L358.926 451.41L358.932 451.42L358.945 451.441L358.954 451.454L358.961 451.466C368.99 467.13 379.019 482.793 389.33 498.267C391.317 501.246 393.224 504.547 395.167 507.911L395.168 507.914C399.335 515.128 403.67 522.634 409.33 527.873C411.86 530.224 418.07 533.403 421.49 531.2C423.875 529.66 424.786 525.374 425.507 521.982C425.723 520.964 425.923 520.026 426.14 519.267C429.01 509.248 431.96 499.229 435.02 489.267C439.11 475.984 443.05 462.634 446.86 449.267C447.306 447.695 447.849 446.072 448.402 444.417L448.403 444.414C450.056 439.47 451.802 434.245 451.36 429.267C450.664 421.448 444.318 412.908 438.889 405.602L438.888 405.601C437.218 403.354 435.635 401.224 434.33 399.267C420.01 377.782 405.89 356.069 392.05 334.267C388.08 328.006 384.013 321.804 379.946 315.602L379.941 315.595L379.936 315.587L379.929 315.577C375.939 309.493 371.949 303.409 368.05 297.267C367.509 296.415 366.98 295.563 366.454 294.718L366.453 294.717L366.452 294.715L366.45 294.713C361.319 286.466 356.583 278.854 346 277.267Z"/>
<path d="M187.98 357.025C183.002 357.542 177.592 360.379 172.539 363.029L172.538 363.03C170.262 364.223 168.059 365.379 166 366.267C156.927 370.185 147.914 374.247 138.901 378.31L138.886 378.316C129.944 382.347 121.002 386.377 112 390.267C110.746 390.809 109.13 391.401 107.33 392.059L107.329 392.06C100.115 394.702 89.9626 398.419 88.45 404.286C85.7293 414.814 94.6663 431.348 100.773 442.645C101.894 444.718 102.919 446.616 103.76 448.267C128.15 496.228 186.35 533.45 241 526.981C271.3 523.394 299.79 514.159 325 496.546C326.014 495.837 327.22 495.045 328.536 494.182L328.545 494.176L328.552 494.171C335.707 489.477 346.109 482.651 346.81 475.267C347.269 470.424 343.67 465.57 340.582 461.405C339.768 460.307 338.99 459.256 338.33 458.267C334.339 452.266 330.453 446.195 326.566 440.123L326.559 440.111L326.546 440.09C322.514 433.79 318.481 427.49 314.33 421.267C309.04 413.325 303.86 405.292 298.69 397.267C298.126 396.391 297.563 395.37 296.976 394.303L296.975 394.301L296.974 394.3C295.289 391.243 293.397 387.809 290.67 386.314C285.999 383.75 281.768 388.849 277.582 393.895C274.42 397.706 271.283 401.488 268 401.914C264.692 402.345 260.719 400.875 257.113 399.54L257.111 399.54C255.659 399.002 254.266 398.487 253 398.127C240.97 394.703 228.98 391.139 217 387.547C215.802 387.188 214.33 386.851 212.735 386.487C207.406 385.271 200.709 383.742 198.3 379.989C197.171 378.223 196.616 374.831 196.02 371.184C194.89 364.271 193.61 356.44 187.98 357.025Z"/>
<path d="M145.197 545.511L145.143 545.65C144.822 546.475 144.502 547.301 144.182 548.127L144.179 548.135L144.175 548.145L144.173 548.151L144.171 548.156C142.481 552.516 140.791 556.877 139.038 561.188L138.686 562.054C133.295 575.313 127.914 588.548 121.602 601.068C121.159 601.947 120.726 602.832 120.293 603.716C119.157 606.037 118.022 608.354 116.723 610.541L116.619 610.716C104.644 630.907 90.5411 587.709 97.4157 573.698L97.4207 573.688L97.4227 573.684C97.8978 572.715 98.3728 571.747 98.8465 570.779C103.076 562.127 107.008 553.215 110.939 544.307C112.845 539.989 114.75 535.671 116.688 531.385C118.096 528.272 119.476 525.149 120.731 521.915L120.746 521.877C121.484 519.978 122.423 517.564 124.451 517.081C126.385 516.621 128.759 518.206 130.775 519.724C135.511 523.29 140.842 528.634 144.359 533.767C147.805 538.798 146.624 541.839 145.197 545.511Z"/>
<path d="M154.674 633.437L155.094 631.904C161.525 608.424 167.944 584.987 175.241 562.651C175.753 561.084 176.256 559.507 176.758 557.93C187.25 525.024 212.711 556.588 205.115 581.54C205.05 581.751 204.986 581.963 204.921 582.177L204.875 582.33C202.436 590.422 199.892 598.386 197.35 606.343L197.342 606.369C196.791 608.094 196.24 609.82 195.69 611.546C190.78 626.963 186.149 642.785 181.518 658.602C163.695 719.49 142.946 676.25 154.674 633.437Z"/>
<path d="M238.471 561.987L238.446 562.136C238.298 563.023 238.149 563.909 238 564.796L237.998 564.805L237.996 564.815L237.995 564.822L237.994 564.827C237.207 569.508 236.419 574.189 235.714 578.864L235.572 579.802C233.4 594.179 231.233 608.529 230.256 622.793C230.187 623.794 230.107 624.795 230.027 625.795C229.816 628.42 229.605 631.041 229.607 633.643L229.608 633.852C229.61 657.838 264.52 628.863 265.778 613.031L265.779 613.015C265.866 611.919 265.953 610.823 266.042 609.728C266.833 599.946 268.021 590.109 269.209 580.276C269.784 575.51 270.36 570.744 270.89 565.986C271.275 562.531 271.69 559.083 272.272 555.609L272.279 555.569C272.619 553.529 273.052 550.935 271.522 549.379C270.061 547.895 267.149 547.911 264.586 548.072C258.565 548.451 251.094 550.013 245.328 552.419C239.677 554.777 239.131 558.043 238.471 561.987Z"/>
</mask>
<path d="M88 245.267C103.926 249.743 119.546 241.844 134.338 234.363L134.339 234.363C138.634 232.191 142.858 230.055 147 228.267C157.59 223.696 168.109 218.966 178.628 214.236L178.63 214.235L178.636 214.232L178.675 214.215L178.684 214.211L178.686 214.21C185.452 211.168 192.217 208.126 199 205.127C201.938 203.829 205.032 202.606 208.164 201.368L208.165 201.368C215.391 198.512 222.816 195.578 228.99 191.452C232.141 189.342 234.749 186.389 237.352 183.444L237.353 183.443L237.354 183.441C239.177 181.377 240.998 179.317 243 177.552C259.75 162.782 280.95 145.86 303 139.902C310.23 137.948 315.04 142.94 319.1 148.267C327.38 159.134 334.27 171.609 339.4 184.267C343.31 193.92 346.46 204.028 348.39 214.267C348.773 216.303 348.967 218.488 349.164 220.698C349.522 224.72 349.887 228.826 351.41 232.267C359.273 249.975 371.23 266.699 383.009 283.174C389.491 292.24 395.918 301.23 401.58 310.267C403.069 312.648 404.549 315.076 406.038 317.519C410.758 325.261 415.567 333.149 421.04 340.174C423.58 343.437 428.35 347.408 432.87 346.764C436.02 346.314 437.436 342.399 438.489 339.488C438.646 339.054 438.795 338.642 438.94 338.267C442.64 328.711 446.32 319.084 449.28 309.267C462.07 266.804 465.07 225.228 465 181.267C464.96 156.3 460.31 128.697 451.58 105.267C444.07 85.113 434.15 65.8163 418.99 50.267C403.62 34.5179 386.09 20.7745 366 11.5757C277.77 -28.8212 183.7 43.7845 141.28 117.267C118.37 156.96 96.8 199.909 88 245.267Z" fill="#4DB8C7"/>
<path d="M0 408.267C13.8787 412.167 26.0906 406.204 38.395 400.195C41.251 398.801 44.1121 397.404 47 396.127C53.241 393.368 59.4849 390.612 65.7295 387.856L65.7383 387.852L65.7412 387.851L65.7441 387.85C92.5432 376.023 119.354 364.191 146 352.036C151.92 349.335 157.864 346.683 163.807 344.032L163.809 344.031L163.819 344.026L163.877 344.001C167.921 342.197 171.964 340.392 176 338.573C176.813 338.206 177.69 337.856 178.592 337.495C182.171 336.064 186.133 334.479 187.97 331.162C190.785 326.084 190.134 318.071 189.528 310.623C189.189 306.457 188.865 302.467 189.17 299.267C190.429 286.041 193.631 273.631 196.834 261.22L196.835 261.217L196.835 261.213C199.127 252.332 201.419 243.45 203 234.267C185.269 230.213 162.912 241.969 143.966 251.931C138.262 254.93 132.867 257.767 128 259.961C106.39 269.702 84.73 279.389 63 288.843C60.6011 289.886 57.834 290.91 54.9321 291.984L54.9292 291.985C46.8252 294.984 37.6692 298.372 32.53 303.657C27.49 308.846 25.3491 318.296 23.4846 326.526L23.4824 326.535L23.4802 326.546L23.4779 326.556C22.8477 329.337 22.2492 331.978 21.5801 334.267C19.2295 342.299 16.6536 350.342 14.0706 358.408C8.78613 374.91 3.47266 391.502 0 408.267Z" fill="#4DB8C7"/>
<path d="M346 277.267C341.63 298.392 331.86 318.792 320.99 337.267C319.685 339.483 317.74 342.063 315.657 344.827C310.703 351.4 304.963 359.017 305.16 365.267C305.444 374.23 314.562 386.063 321.89 395.572C324.384 398.808 326.67 401.774 328.33 404.267C338.719 419.848 348.818 435.623 358.917 451.397L358.92 451.402L358.926 451.41L358.932 451.42L358.945 451.441L358.954 451.454L358.961 451.466C368.99 467.13 379.019 482.793 389.33 498.267C391.317 501.246 393.224 504.547 395.167 507.911L395.168 507.914C399.335 515.128 403.67 522.634 409.33 527.873C411.86 530.224 418.07 533.403 421.49 531.2C423.875 529.66 424.786 525.374 425.507 521.982C425.723 520.964 425.923 520.026 426.14 519.267C429.01 509.248 431.96 499.229 435.02 489.267C439.11 475.984 443.05 462.634 446.86 449.267C447.306 447.695 447.849 446.072 448.402 444.417L448.403 444.414C450.056 439.47 451.802 434.245 451.36 429.267C450.664 421.448 444.318 412.908 438.889 405.602L438.888 405.601C437.218 403.354 435.635 401.224 434.33 399.267C420.01 377.782 405.89 356.069 392.05 334.267C388.08 328.006 384.013 321.804 379.946 315.602L379.941 315.595L379.936 315.587L379.929 315.577C375.939 309.493 371.949 303.409 368.05 297.267C367.509 296.415 366.98 295.563 366.454 294.718L366.453 294.717L366.452 294.715L366.45 294.713C361.319 286.466 356.583 278.854 346 277.267Z" fill="#4DB8C7"/>
<path d="M187.98 357.025C183.002 357.542 177.592 360.379 172.539 363.029L172.538 363.03C170.262 364.223 168.059 365.379 166 366.267C156.927 370.185 147.914 374.247 138.901 378.31L138.886 378.316C129.944 382.347 121.002 386.377 112 390.267C110.746 390.809 109.13 391.401 107.33 392.059L107.329 392.06C100.115 394.702 89.9626 398.419 88.45 404.286C85.7293 414.814 94.6663 431.348 100.773 442.645C101.894 444.718 102.919 446.616 103.76 448.267C128.15 496.228 186.35 533.45 241 526.981C271.3 523.394 299.79 514.159 325 496.546C326.014 495.837 327.22 495.045 328.536 494.182L328.545 494.176L328.552 494.171C335.707 489.477 346.109 482.651 346.81 475.267C347.269 470.424 343.67 465.57 340.582 461.405C339.768 460.307 338.99 459.256 338.33 458.267C334.339 452.266 330.453 446.195 326.566 440.123L326.559 440.111L326.546 440.09C322.514 433.79 318.481 427.49 314.33 421.267C309.04 413.325 303.86 405.292 298.69 397.267C298.126 396.391 297.563 395.37 296.976 394.303L296.975 394.301L296.974 394.3C295.289 391.243 293.397 387.809 290.67 386.314C285.999 383.75 281.768 388.849 277.582 393.895C274.42 397.706 271.283 401.488 268 401.914C264.692 402.345 260.719 400.875 257.113 399.54L257.111 399.54C255.659 399.002 254.266 398.487 253 398.127C240.97 394.703 228.98 391.139 217 387.547C215.802 387.188 214.33 386.851 212.735 386.487C207.406 385.271 200.709 383.742 198.3 379.989C197.171 378.223 196.616 374.831 196.02 371.184C194.89 364.271 193.61 356.44 187.98 357.025Z" fill="#4DB8C7"/>
<path d="M145.197 545.511L145.143 545.65C144.822 546.475 144.502 547.301 144.182 548.127L144.179 548.135L144.175 548.145L144.173 548.151L144.171 548.156C142.481 552.516 140.791 556.877 139.038 561.188L138.686 562.054C133.295 575.313 127.914 588.548 121.602 601.068C121.159 601.947 120.726 602.832 120.293 603.716C119.157 606.037 118.022 608.354 116.723 610.541L116.619 610.716C104.644 630.907 90.5411 587.709 97.4157 573.698L97.4207 573.688L97.4227 573.684C97.8978 572.715 98.3728 571.747 98.8465 570.779C103.076 562.127 107.008 553.215 110.939 544.307C112.845 539.989 114.75 535.671 116.688 531.385C118.096 528.272 119.476 525.149 120.731 521.915L120.746 521.877C121.484 519.978 122.423 517.564 124.451 517.081C126.385 516.621 128.759 518.206 130.775 519.724C135.511 523.29 140.842 528.634 144.359 533.767C147.805 538.798 146.624 541.839 145.197 545.511Z" fill="#4DB8C7"/>
<path d="M154.674 633.437L155.094 631.904C161.525 608.424 167.944 584.987 175.241 562.651C175.753 561.084 176.256 559.507 176.758 557.93C187.25 525.024 212.711 556.588 205.115 581.54C205.05 581.751 204.986 581.963 204.921 582.177L204.875 582.33C202.436 590.422 199.892 598.386 197.35 606.343L197.342 606.369C196.791 608.094 196.24 609.82 195.69 611.546C190.78 626.963 186.149 642.785 181.518 658.602C163.695 719.49 142.946 676.25 154.674 633.437Z" fill="#4DB8C7"/>
<path d="M238.471 561.987L238.446 562.136C238.298 563.023 238.149 563.909 238 564.796L237.998 564.805L237.996 564.815L237.995 564.822L237.994 564.827C237.207 569.508 236.419 574.189 235.714 578.864L235.572 579.802C233.4 594.179 231.233 608.529 230.256 622.793C230.187 623.794 230.107 624.795 230.027 625.795C229.816 628.42 229.605 631.041 229.607 633.643L229.608 633.852C229.61 657.838 264.52 628.863 265.778 613.031L265.779 613.015C265.866 611.919 265.953 610.823 266.042 609.728C266.833 599.946 268.021 590.109 269.209 580.276C269.784 575.51 270.36 570.744 270.89 565.986C271.275 562.531 271.69 559.083 272.272 555.609L272.279 555.569C272.619 553.529 273.052 550.935 271.522 549.379C270.061 547.895 267.149 547.911 264.586 548.072C258.565 548.451 251.094 550.013 245.328 552.419C239.677 554.777 239.131 558.043 238.471 561.987Z" fill="#4DB8C7"/>
<path d="M88 245.267C103.926 249.743 119.546 241.844 134.338 234.363L134.339 234.363C138.634 232.191 142.858 230.055 147 228.267C157.59 223.696 168.109 218.966 178.628 214.236L178.63 214.235L178.636 214.232L178.675 214.215L178.684 214.211L178.686 214.21C185.452 211.168 192.217 208.126 199 205.127C201.938 203.829 205.032 202.606 208.164 201.368L208.165 201.368C215.391 198.512 222.816 195.578 228.99 191.452C232.141 189.342 234.749 186.389 237.352 183.444L237.353 183.443L237.354 183.441C239.177 181.377 240.998 179.317 243 177.552C259.75 162.782 280.95 145.86 303 139.902C310.23 137.948 315.04 142.94 319.1 148.267C327.38 159.134 334.27 171.609 339.4 184.267C343.31 193.92 346.46 204.028 348.39 214.267C348.773 216.303 348.967 218.488 349.164 220.698C349.522 224.72 349.887 228.826 351.41 232.267C359.273 249.975 371.23 266.699 383.009 283.174C389.491 292.24 395.918 301.23 401.58 310.267C403.069 312.648 404.549 315.076 406.038 317.519C410.758 325.261 415.567 333.149 421.04 340.174C423.58 343.437 428.35 347.408 432.87 346.764C436.02 346.314 437.436 342.399 438.489 339.488C438.646 339.054 438.795 338.642 438.94 338.267C442.64 328.711 446.32 319.084 449.28 309.267C462.07 266.804 465.07 225.228 465 181.267C464.96 156.3 460.31 128.697 451.58 105.267C444.07 85.113 434.15 65.8163 418.99 50.267C403.62 34.5179 386.09 20.7745 366 11.5757C277.77 -28.8212 183.7 43.7845 141.28 117.267C118.37 156.96 96.8 199.909 88 245.267Z" stroke="#14A0B4" stroke-width="50" mask="url(#path-1-inside-1_14_19)"/>
<path d="M0 408.267C13.8787 412.167 26.0906 406.204 38.395 400.195C41.251 398.801 44.1121 397.404 47 396.127C53.241 393.368 59.4849 390.612 65.7295 387.856L65.7383 387.852L65.7412 387.851L65.7441 387.85C92.5432 376.023 119.354 364.191 146 352.036C151.92 349.335 157.864 346.683 163.807 344.032L163.809 344.031L163.819 344.026L163.877 344.001C167.921 342.197 171.964 340.392 176 338.573C176.813 338.206 177.69 337.856 178.592 337.495C182.171 336.064 186.133 334.479 187.97 331.162C190.785 326.084 190.134 318.071 189.528 310.623C189.189 306.457 188.865 302.467 189.17 299.267C190.429 286.041 193.631 273.631 196.834 261.22L196.835 261.217L196.835 261.213C199.127 252.332 201.419 243.45 203 234.267C185.269 230.213 162.912 241.969 143.966 251.931C138.262 254.93 132.867 257.767 128 259.961C106.39 269.702 84.73 279.389 63 288.843C60.6011 289.886 57.834 290.91 54.9321 291.984L54.9292 291.985C46.8252 294.984 37.6692 298.372 32.53 303.657C27.49 308.846 25.3491 318.296 23.4846 326.526L23.4824 326.535L23.4802 326.546L23.4779 326.556C22.8477 329.337 22.2492 331.978 21.5801 334.267C19.2295 342.299 16.6536 350.342 14.0706 358.408C8.78613 374.91 3.47266 391.502 0 408.267Z" stroke="#14A0B4" stroke-width="50" mask="url(#path-1-inside-1_14_19)"/>
<path d="M346 277.267C341.63 298.392 331.86 318.792 320.99 337.267C319.685 339.483 317.74 342.063 315.657 344.827C310.703 351.4 304.963 359.017 305.16 365.267C305.444 374.23 314.562 386.063 321.89 395.572C324.384 398.808 326.67 401.774 328.33 404.267C338.719 419.848 348.818 435.623 358.917 451.397L358.92 451.402L358.926 451.41L358.932 451.42L358.945 451.441L358.954 451.454L358.961 451.466C368.99 467.13 379.019 482.793 389.33 498.267C391.317 501.246 393.224 504.547 395.167 507.911L395.168 507.914C399.335 515.128 403.67 522.634 409.33 527.873C411.86 530.224 418.07 533.403 421.49 531.2C423.875 529.66 424.786 525.374 425.507 521.982C425.723 520.964 425.923 520.026 426.14 519.267C429.01 509.248 431.96 499.229 435.02 489.267C439.11 475.984 443.05 462.634 446.86 449.267C447.306 447.695 447.849 446.072 448.402 444.417L448.403 444.414C450.056 439.47 451.802 434.245 451.36 429.267C450.664 421.448 444.318 412.908 438.889 405.602L438.888 405.601C437.218 403.354 435.635 401.224 434.33 399.267C420.01 377.782 405.89 356.069 392.05 334.267C388.08 328.006 384.013 321.804 379.946 315.602L379.941 315.595L379.936 315.587L379.929 315.577C375.939 309.493 371.949 303.409 368.05 297.267C367.509 296.415 366.98 295.563 366.454 294.718L366.453 294.717L366.452 294.715L366.45 294.713C361.319 286.466 356.583 278.854 346 277.267Z" stroke="#14A0B4" stroke-width="50" mask="url(#path-1-inside-1_14_19)"/>
<path d="M187.98 357.025C183.002 357.542 177.592 360.379 172.539 363.029L172.538 363.03C170.262 364.223 168.059 365.379 166 366.267C156.927 370.185 147.914 374.247 138.901 378.31L138.886 378.316C129.944 382.347 121.002 386.377 112 390.267C110.746 390.809 109.13 391.401 107.33 392.059L107.329 392.06C100.115 394.702 89.9626 398.419 88.45 404.286C85.7293 414.814 94.6663 431.348 100.773 442.645C101.894 444.718 102.919 446.616 103.76 448.267C128.15 496.228 186.35 533.45 241 526.981C271.3 523.394 299.79 514.159 325 496.546C326.014 495.837 327.22 495.045 328.536 494.182L328.545 494.176L328.552 494.171C335.707 489.477 346.109 482.651 346.81 475.267C347.269 470.424 343.67 465.57 340.582 461.405C339.768 460.307 338.99 459.256 338.33 458.267C334.339 452.266 330.453 446.195 326.566 440.123L326.559 440.111L326.546 440.09C322.514 433.79 318.481 427.49 314.33 421.267C309.04 413.325 303.86 405.292 298.69 397.267C298.126 396.391 297.563 395.37 296.976 394.303L296.975 394.301L296.974 394.3C295.289 391.243 293.397 387.809 290.67 386.314C285.999 383.75 281.768 388.849 277.582 393.895C274.42 397.706 271.283 401.488 268 401.914C264.692 402.345 260.719 400.875 257.113 399.54L257.111 399.54C255.659 399.002 254.266 398.487 253 398.127C240.97 394.703 228.98 391.139 217 387.547C215.802 387.188 214.33 386.851 212.735 386.487C207.406 385.271 200.709 383.742 198.3 379.989C197.171 378.223 196.616 374.831 196.02 371.184C194.89 364.271 193.61 356.44 187.98 357.025Z" stroke="#14A0B4" stroke-width="50" mask="url(#path-1-inside-1_14_19)"/>
<path d="M145.197 545.511L145.143 545.65C144.822 546.475 144.502 547.301 144.182 548.127L144.179 548.135L144.175 548.145L144.173 548.151L144.171 548.156C142.481 552.516 140.791 556.877 139.038 561.188L138.686 562.054C133.295 575.313 127.914 588.548 121.602 601.068C121.159 601.947 120.726 602.832 120.293 603.716C119.157 606.037 118.022 608.354 116.723 610.541L116.619 610.716C104.644 630.907 90.5411 587.709 97.4157 573.698L97.4207 573.688L97.4227 573.684C97.8978 572.715 98.3728 571.747 98.8465 570.779C103.076 562.127 107.008 553.215 110.939 544.307C112.845 539.989 114.75 535.671 116.688 531.385C118.096 528.272 119.476 525.149 120.731 521.915L120.746 521.877C121.484 519.978 122.423 517.564 124.451 517.081C126.385 516.621 128.759 518.206 130.775 519.724C135.511 523.29 140.842 528.634 144.359 533.767C147.805 538.798 146.624 541.839 145.197 545.511Z" stroke="#14A0B4" stroke-width="50" mask="url(#path-1-inside-1_14_19)"/>
<path d="M154.674 633.437L155.094 631.904C161.525 608.424 167.944 584.987 175.241 562.651C175.753 561.084 176.256 559.507 176.758 557.93C187.25 525.024 212.711 556.588 205.115 581.54C205.05 581.751 204.986 581.963 204.921 582.177L204.875 582.33C202.436 590.422 199.892 598.386 197.35 606.343L197.342 606.369C196.791 608.094 196.24 609.82 195.69 611.546C190.78 626.963 186.149 642.785 181.518 658.602C163.695 719.49 142.946 676.25 154.674 633.437Z" stroke="#14A0B4" stroke-width="50" mask="url(#path-1-inside-1_14_19)"/>
<path d="M238.471 561.987L238.446 562.136C238.298 563.023 238.149 563.909 238 564.796L237.998 564.805L237.996 564.815L237.995 564.822L237.994 564.827C237.207 569.508 236.419 574.189 235.714 578.864L235.572 579.802C233.4 594.179 231.233 608.529 230.256 622.793C230.187 623.794 230.107 624.795 230.027 625.795C229.816 628.42 229.605 631.041 229.607 633.643L229.608 633.852C229.61 657.838 264.52 628.863 265.778 613.031L265.779 613.015C265.866 611.919 265.953 610.823 266.042 609.728C266.833 599.946 268.021 590.109 269.209 580.276C269.784 575.51 270.36 570.744 270.89 565.986C271.275 562.531 271.69 559.083 272.272 555.609L272.279 555.569C272.619 553.529 273.052 550.935 271.522 549.379C270.061 547.895 267.149 547.911 264.586 548.072C258.565 548.451 251.094 550.013 245.328 552.419C239.677 554.777 239.131 558.043 238.471 561.987Z" stroke="#14A0B4" stroke-width="50" mask="url(#path-1-inside-1_14_19)"/>
</svg>
